<svg version="1.1" id="Layer_1" xmlns="http://www.w3.org/2000/svg" xmlns:xlink="http://www.w3.org/1999/xlink" x="0px" y="0px"
	 width="100%" viewBox="0 0 150 150" enable-background="new 0 0 150 150" xml:space="preserve">
<path fill="#2A5B36" opacity="1.000000" stroke="none" 
	d="
M72.000000,151.000000 
	C48.019588,151.000000 24.539181,151.000000 1.029386,151.000000 
	C1.029386,101.061287 1.029386,51.122551 1.029386,1.091908 
	C50.896900,1.091908 100.794022,1.091908 150.845581,1.091908 
	C150.845581,50.999630 150.845581,100.999763 150.845581,151.000000 
	C124.789551,151.000000 98.644775,151.000000 72.000000,151.000000 
M102.970078,56.559135 
	C102.970078,56.559135 102.925186,56.108818 102.464821,55.639442 
	C100.265251,54.400593 98.000755,51.425804 95.420105,56.137199 
	C94.990646,56.169331 94.561188,56.201466 94.152275,55.508812 
	C93.587570,53.330070 93.022873,51.151333 91.637032,48.789608 
	C91.078011,48.763000 90.518990,48.736389 89.318962,48.448933 
	C85.051323,47.071762 83.243134,49.035892 82.480156,53.014931 
	C81.102661,54.497162 79.725174,55.979397 78.151253,57.292812 
	C78.151253,57.292812 78.372261,57.427837 78.140259,57.424828 
	C77.898651,57.538227 77.813713,57.722889 77.874054,58.283966 
	C77.874054,58.283966 77.901787,58.588074 77.429131,58.793156 
	C77.193703,59.041550 76.958275,59.289944 75.985588,59.562679 
	C75.273117,59.741936 74.560654,59.921192 73.491035,59.828648 
	C73.307518,59.591621 73.148987,59.338921 72.928902,58.328136 
	C71.450485,57.044903 70.150627,55.391556 68.449158,54.570641 
	C66.243919,53.506668 63.718636,53.106033 61.621895,52.503403 
	C60.209499,54.197624 58.429699,56.332561 56.587524,58.453220 
	C56.587524,58.453220 56.594379,58.389702 56.403496,57.949085 
	C56.241417,57.667084 56.021080,57.442169 55.212124,56.853676 
	C53.270992,56.641659 51.329857,56.429642 48.435707,56.140896 
	C46.838680,56.152893 45.241657,56.164886 43.236614,56.175735 
	C43.236614,56.175735 42.913891,55.926086 42.348541,55.586647 
	C40.013783,55.135323 37.365997,53.261471 35.078091,56.999065 
	C33.137295,56.999065 31.196499,56.999065 29.093811,56.999065 
	C29.093811,62.573231 29.093811,67.745872 29.093811,73.641953 
	C30.972763,73.784546 33.491528,73.975685 36.025818,74.931030 
	C37.772224,77.211395 39.518631,79.491760 40.545853,80.833054 
	C37.791069,82.011658 34.975346,83.216331 31.608156,84.825783 
	C27.906376,88.995834 28.539333,91.170113 34.637478,95.438850 
	C36.695621,93.501434 38.743210,91.573959 40.608025,88.918182 
	C39.944454,88.234795 39.280884,87.551407 38.709534,86.286743 
	C38.731083,85.895676 38.752636,85.504601 39.646988,85.072365 
	C41.102463,85.045975 42.557934,85.019585 44.230732,85.447647 
	C44.290230,85.604668 44.349724,85.761681 44.181187,86.571991 
	C44.245716,87.669502 44.310249,88.767014 44.322536,90.617790 
	C44.345211,91.120193 44.367886,91.622604 43.694599,92.325836 
	C43.271446,94.011635 42.848289,95.697433 42.399487,97.530571 
	C42.423340,97.710884 42.508629,97.854706 42.885269,97.967804 
	C42.885269,97.967804 43.038784,98.139046 43.411083,98.713150 
	C45.561230,99.374634 47.692459,100.479401 49.866875,100.572197 
	C52.016815,100.663956 54.349579,99.816719 52.121044,95.938919 
	C52.185760,94.287964 51.807873,92.451599 52.405872,91.024033 
	C53.714043,87.901108 55.783768,85.959557 58.982960,89.534477 
	C58.982960,89.534477 58.889843,89.930054 58.958988,89.962318 
	C58.958988,89.962318 58.926708,89.893265 58.419056,90.094795 
	C57.986847,90.411751 57.554638,90.728706 56.821655,91.360626 
	C56.786777,91.907219 56.751900,92.453804 56.866623,93.720230 
	C56.905689,94.454224 56.944756,95.188210 57.033169,96.476051 
	C57.698208,96.908310 58.363247,97.340561 59.717731,97.914352 
	C60.167690,98.047256 60.617649,98.180161 61.256042,98.886093 
	C63.813091,102.475395 65.836670,99.781532 68.662582,98.235565 
	C69.128960,98.279640 69.595337,98.323723 70.527863,98.921974 
	C79.348701,98.703423 88.169540,98.484879 97.517853,97.972572 
	C97.765549,97.659683 98.013245,97.346794 98.858055,96.880386 
	C99.084572,95.539413 99.464722,94.202858 99.503502,92.856476 
	C99.570557,90.528130 99.298988,88.187302 99.415871,85.864105 
	C99.490105,84.388626 100.009727,82.935555 100.329613,81.472435 
	C98.564949,81.297966 96.800293,81.123497 94.273529,80.852158 
	C93.506409,80.874413 92.739288,80.896667 91.362816,80.513603 
	C87.291168,80.811882 85.488174,78.071869 84.222542,74.281670 
	C85.225609,73.875954 86.256233,73.065460 87.227188,73.131561 
	C92.688965,73.503395 98.136383,74.086205 103.654709,74.603233 
	C103.827873,71.643608 103.728508,69.825119 104.085091,68.100937 
	C104.576385,65.725395 105.412132,63.421093 106.695236,61.227322 
	C107.103035,61.228657 107.510834,61.229992 108.587357,61.566723 
	C109.149246,62.684460 109.711128,63.802200 110.171486,65.578552 
	C110.414398,66.410423 110.657310,67.242287 110.934845,68.726212 
	C111.560066,69.573540 112.185287,70.420860 113.285255,71.894615 
	C116.802383,74.263634 120.179428,73.244781 123.411987,71.991776 
	C121.281181,70.611771 119.317131,69.339767 117.902786,67.661522 
	C118.250854,66.153381 118.598923,64.645248 119.504578,63.111115 
	C119.690544,63.105228 119.876518,63.099346 120.482330,63.756123 
	C122.245743,63.838242 124.009148,63.920361 126.299576,64.027016 
	C125.877052,62.181976 125.597298,60.960354 125.248161,59.808651 
	C125.248161,59.808651 125.345848,59.796036 125.126114,59.297882 
	C124.796356,59.163094 124.466606,59.028305 123.925987,58.419640 
	C123.642487,58.229607 123.358986,58.039574 122.779282,57.151840 
	C119.338173,55.181770 116.091850,55.347210 113.016533,58.016014 
	C113.016533,58.016014 113.037560,58.075214 112.284523,58.500065 
	C111.404732,58.708969 110.524948,58.917873 109.904823,58.372723 
	C110.125153,55.718781 108.785400,55.617546 106.870285,56.545879 
	C105.595818,57.163658 104.350578,57.841743 103.138832,58.183250 
	C103.138832,58.183250 103.011032,57.897449 103.109604,57.436268 
	C103.109604,57.436268 102.908379,57.007462 102.970078,56.559135 
z"/>
<path fill="#365C39" opacity="1.000000" stroke="none" 
	d="
M32.159618,84.421005 
	C34.975346,83.216331 37.791069,82.011658 40.545853,80.833054 
	C39.518631,79.491760 37.772224,77.211395 36.242729,74.470520 
	C36.459637,74.010010 36.925777,73.912033 37.320267,73.926514 
	C38.504257,73.933449 39.293766,73.925903 40.508408,73.947510 
	C42.917809,73.155655 46.093178,75.989861 47.415394,71.990280 
	C48.540916,71.986633 49.291504,71.979324 50.230629,72.355743 
	C53.140846,72.492104 55.862526,72.244728 58.533550,71.988098 
	C58.482891,71.978844 58.433155,72.069038 58.818481,72.032806 
	C62.386555,72.160393 65.569305,72.324203 68.964096,72.722343 
	C71.097351,72.608620 73.018570,72.260567 75.312668,71.905815 
	C76.183006,71.882828 76.680466,71.866539 77.468285,71.932861 
	C78.132393,72.165306 78.506142,72.315132 79.077713,72.678764 
	C79.567932,73.576569 79.860329,74.260559 79.822113,75.076157 
	C78.644363,77.045471 77.797226,78.883194 76.529808,80.762527 
	C75.269173,80.899605 74.428818,80.995071 73.299393,81.046547 
	C72.324402,80.654373 71.638496,80.306198 70.737320,79.800270 
	C70.032639,79.435532 69.543228,79.228554 68.775993,79.035965 
	C68.312981,79.060020 68.127777,79.069679 67.898399,79.190063 
	C67.801041,79.544044 67.835548,79.775848 67.951736,80.207336 
	C67.945724,80.418480 67.940590,80.840904 67.513870,80.846062 
	C65.098022,80.966026 63.108906,81.080833 60.900780,81.044174 
	C59.633736,80.920097 58.585701,80.947487 57.126385,80.878479 
	C53.908581,81.376198 51.256783,82.988754 48.192181,80.945282 
	C47.361172,80.391167 45.301174,81.680168 43.869415,82.480881 
	C43.960190,83.556755 43.986801,84.274971 44.013409,84.993195 
	C42.557934,85.019585 41.102463,85.045975 38.893051,85.222092 
	C36.145950,85.054871 34.152786,84.737938 32.159618,84.421005 
z"/>
<path fill="#EFC8B2" opacity="1.000000" stroke="none" 
	d="
M47.040462,71.986626 
	C46.093178,75.989861 42.917809,73.155655 40.470215,73.493477 
	C39.992012,69.532784 40.143433,66.040985 39.846638,62.587696 
	C39.771400,61.712337 38.268501,60.959675 37.421619,60.150631 
	C36.818268,61.115303 35.659130,62.110229 35.709709,63.039307 
	C35.907608,66.674835 36.487709,70.289574 36.925777,73.912033 
	C36.925777,73.912033 36.459637,74.010010 36.234966,74.088425 
	C33.491528,73.975685 30.972763,73.784546 29.093811,73.641953 
	C29.093811,67.745872 29.093811,62.573231 29.093811,56.999065 
	C31.196499,56.999065 33.137295,56.999065 35.676357,57.293091 
	C38.487713,57.033436 40.700802,56.479763 42.913891,55.926086 
	C42.913891,55.926086 43.236614,56.175735 43.709686,56.465530 
	C44.781952,58.509106 45.628906,60.222023 45.926411,62.025574 
	C46.469448,65.317604 46.687088,68.663307 47.040462,71.986626 
z"/>
<path fill="#ECC5B1" opacity="1.000000" stroke="none" 
	d="
M106.100327,61.086273 
	C105.412132,63.421093 104.576385,65.725395 104.085091,68.100937 
	C103.728508,69.825119 103.827873,71.643608 103.654709,74.603233 
	C98.136383,74.086205 92.688965,73.503395 87.227188,73.131561 
	C86.256233,73.065460 85.225609,73.875954 83.792053,74.730972 
	C82.953087,75.249016 82.544617,75.317764 82.157684,74.955231 
	C82.551971,73.142052 82.924728,71.760170 83.600014,70.485741 
	C84.851425,70.364769 85.800308,70.136337 87.061646,69.930099 
	C87.582413,69.967308 87.790726,69.982338 88.344757,70.079758 
	C89.845421,70.424095 91.000366,70.686020 92.504379,71.132812 
	C95.176613,72.851089 95.963531,71.975708 96.066185,69.454582 
	C96.216393,65.765472 96.572128,62.084721 96.892776,58.047058 
	C96.983681,57.219913 97.022079,56.746120 97.425575,56.215034 
	C98.525925,56.201500 99.261185,56.245258 100.215607,56.435688 
	C100.932121,56.749783 101.429474,56.917202 102.101852,57.228333 
	C102.507805,57.566460 102.752525,57.741596 103.011032,57.897449 
	C103.011032,57.897449 103.138832,58.183250 103.199585,58.493088 
	C104.207008,59.564041 105.153664,60.325157 106.100327,61.086273 
z"/>
<path fill="#485F3D" opacity="1.000000" stroke="none" 
	d="
M58.433155,72.069038 
	C58.433155,72.069038 58.482891,71.978844 58.187843,71.722557 
	C57.478493,67.133347 57.064198,62.800423 56.649899,58.467499 
	C58.429699,56.332561 60.209499,54.197624 61.621895,52.503403 
	C63.718636,53.106033 66.243919,53.506668 68.449158,54.570641 
	C70.150627,55.391556 71.450485,57.044903 72.610497,58.562489 
	C69.417297,58.036488 66.542511,57.276134 63.540314,56.482082 
	C65.309006,59.430180 66.550011,61.498722 67.387489,63.637970 
	C59.796394,64.251625 59.608223,64.435608 58.433155,72.069038 
z"/>
<path fill="#EBC1B1" opacity="1.000000" stroke="none" 
	d="
M56.618713,58.460358 
	C57.064198,62.800423 57.478493,67.133347 58.238503,71.731812 
	C55.862526,72.244728 53.140846,72.492104 50.505348,72.108032 
	C50.666389,70.521324 50.938904,69.531059 50.777100,68.617737 
	C50.375717,66.352089 49.775974,64.121590 49.388725,62.450211 
	C49.388725,59.718819 49.388725,57.968224 49.388725,56.217628 
	C51.329857,56.429642 53.270992,56.641659 55.539143,57.301453 
	C56.011772,58.073017 56.254513,58.286507 56.594379,58.389702 
	C56.594379,58.389702 56.587524,58.453220 56.618713,58.460358 
z"/>
<path fill="#F0C1B1" opacity="1.000000" stroke="none" 
	d="
M91.972168,80.918922 
	C92.739288,80.896667 93.506409,80.874413 94.781082,81.217056 
	C97.804092,81.908142 97.896286,83.385635 96.945198,85.234505 
	C95.075645,88.868797 93.146461,92.472427 91.033951,96.269150 
	C90.535049,96.914650 90.244148,97.379738 89.565002,97.904579 
	C88.131721,97.938583 87.086693,97.912827 85.903030,97.626480 
	C85.162132,96.891953 84.559845,96.418015 84.005890,95.613449 
	C84.713379,94.198814 85.372528,93.114815 86.319740,91.885117 
	C87.041298,91.023071 87.474792,90.306732 87.977783,89.252869 
	C88.692421,86.944649 89.337570,84.973961 90.267487,82.899071 
	C91.025566,82.169556 91.498871,81.544243 91.972168,80.918922 
z"/>
<path fill="#3C522D" opacity="1.000000" stroke="none" 
	d="
M86.041656,97.887085 
	C87.086693,97.912827 88.131721,97.938583 89.999237,97.995972 
	C92.877937,98.107185 94.934158,98.186760 96.990379,98.266335 
	C88.169540,98.484879 79.348701,98.703423 70.554260,98.469055 
	C73.083961,94.972549 71.392677,83.969734 67.940590,80.840904 
	C67.940590,80.840904 67.945724,80.418480 67.946915,79.978287 
	C67.948097,79.538094 67.942566,79.079338 67.942566,79.079338 
	C68.127777,79.069679 68.312981,79.060020 68.987091,79.199753 
	C69.968193,79.552101 70.460388,79.755058 70.952583,79.958023 
	C71.638496,80.306198 72.324402,80.654373 73.462341,81.439697 
	C74.185310,86.871811 74.456253,91.866791 74.464142,96.986710 
	C74.141670,97.263824 74.028587,97.420586 74.041069,97.566605 
	C74.049911,97.669998 74.228035,97.841637 74.331490,97.842300 
	C78.234810,97.867386 82.138245,97.876137 86.041656,97.887085 
z"/>
<path fill="#ECC2AF" opacity="1.000000" stroke="none" 
	d="
M67.791016,63.567265 
	C66.550011,61.498722 65.309006,59.430180 63.540314,56.482082 
	C66.542511,57.276134 69.417297,58.036488 72.653763,58.933697 
	C73.148987,59.338921 73.307518,59.591621 73.656464,60.413986 
	C74.194527,64.637054 74.567162,68.274788 74.939789,71.912521 
	C73.018570,72.260567 71.097351,72.608620 68.994843,72.333542 
	C68.472710,68.996033 68.131866,66.281647 67.791016,63.567265 
z"/>
<path fill="#ECC3B1" opacity="1.000000" stroke="none" 
	d="
M67.513870,80.846062 
	C71.392677,83.969734 73.083961,94.972549 70.321182,98.191971 
	C69.595337,98.323723 69.128960,98.279640 68.100288,98.146355 
	C67.318542,97.818779 67.099091,97.580406 66.812790,97.069054 
	C66.642441,95.515038 66.531563,94.234558 66.437050,92.952866 
	C66.265816,90.630905 66.104324,88.308220 65.696259,85.698669 
	C63.390858,84.653412 61.327946,83.895325 58.746376,82.946632 
	C59.548885,82.354576 60.334335,81.775108 61.119789,81.195633 
	C63.108906,81.080833 65.098022,80.966026 67.513870,80.846062 
z"/>
<path fill="#DCC0A8" opacity="1.000000" stroke="none" 
	d="
M31.883888,84.623398 
	C34.152786,84.737938 36.145950,85.054871 38.456650,85.242676 
	C38.752636,85.504601 38.731083,85.895676 38.442612,86.818100 
	C39.047390,88.115135 39.919094,88.880806 40.790798,89.646484 
	C38.743210,91.573959 36.695621,93.501434 34.637478,95.438850 
	C28.539333,91.170113 27.906376,88.995834 31.883888,84.623398 
z"/>
<path fill="#506747" opacity="1.000000" stroke="none" 
	d="
M91.667496,80.716263 
	C91.498871,81.544243 91.025566,82.169556 89.958961,82.868935 
	C88.079048,83.560661 86.844208,84.367752 85.489937,84.737900 
	C84.343361,85.051285 83.058594,84.859138 81.718689,84.527359 
	C81.994797,80.390724 79.133026,81.014435 76.950089,80.720917 
	C77.797226,78.883194 78.644363,77.045471 80.053841,75.159348 
	C81.122826,75.202789 81.629486,75.294655 82.136139,75.386513 
	C82.544617,75.317764 82.953087,75.249016 83.655464,75.079163 
	C85.488174,78.071869 87.291168,80.811882 91.667496,80.716263 
z"/>
<path fill="#EFC2B1" opacity="1.000000" stroke="none" 
	d="
M117.353073,68.067757 
	C119.317131,69.339767 121.281181,70.611771 123.411987,71.991776 
	C120.179428,73.244781 116.802383,74.263634 113.007248,71.262253 
	C112.119576,69.777985 111.509903,68.926071 110.900223,68.074158 
	C110.657310,67.242287 110.414398,66.410423 110.382401,64.955894 
	C111.408066,62.247231 112.222809,60.161221 113.037560,58.075214 
	C113.037560,58.075214 113.016533,58.016014 113.327484,58.128933 
	C114.642982,59.198132 115.647530,60.154408 116.669289,61.436188 
	C116.769760,62.184765 116.853020,62.607834 116.770523,63.331596 
	C116.854210,65.110779 117.103645,66.589264 117.353073,68.067757 
z"/>
<path fill="#F8C3B1" opacity="1.000000" stroke="none" 
	d="
M44.122070,85.220421 
	C43.986801,84.274971 43.960190,83.556755 44.282440,82.435623 
	C50.327805,81.162415 49.785206,85.718483 50.696632,89.434097 
	C50.699661,91.562401 50.704399,93.265068 50.485382,95.163300 
	C46.196415,98.108337 45.531448,94.684654 44.390560,92.125008 
	C44.367886,91.622604 44.345211,91.120193 44.516567,90.044678 
	C44.610138,88.287285 44.509682,87.102989 44.409222,85.918701 
	C44.349724,85.761681 44.290230,85.604668 44.122070,85.220421 
z"/>
<path fill="#506747" opacity="1.000000" stroke="none" 
	d="
M91.241943,96.088745 
	C93.146461,92.472427 95.075645,88.868797 96.945198,85.234505 
	C97.896286,83.385635 97.804092,81.908142 95.162125,81.265488 
	C96.800293,81.123497 98.564949,81.297966 100.329613,81.472435 
	C100.009727,82.935555 99.490105,84.388626 99.415871,85.864105 
	C99.298988,88.187302 99.570557,90.528130 99.503502,92.856476 
	C99.464722,94.202858 99.084572,95.539413 98.501724,96.638596 
	C98.145393,95.636459 98.145393,94.876099 98.145393,94.699135 
	C95.690895,95.193207 93.466423,95.640976 91.241943,96.088745 
M96.503807,90.528122 
	C96.503807,90.528122 96.483055,90.477592 96.503807,90.528122 
z"/>
<path fill="#385231" opacity="1.000000" stroke="none" 
	d="
M96.840271,58.400406 
	C96.572128,62.084721 96.216393,65.765472 96.066185,69.454582 
	C95.963531,71.975708 95.176613,72.851089 92.447403,70.698044 
	C92.085289,67.742691 92.129219,65.406967 92.470894,62.891533 
	C92.564087,61.451229 92.359535,60.190643 92.111298,58.562508 
	C92.003082,57.459846 91.938553,56.724743 91.937698,55.554382 
	C92.153648,53.070282 92.305908,51.021435 92.458160,48.972591 
	C93.022873,51.151333 93.587570,53.330070 94.323769,56.097931 
	C95.276932,57.258171 96.058601,57.829288 96.840271,58.400406 
z"/>
<path fill="#475C3B" opacity="1.000000" stroke="none" 
	d="
M50.709141,94.967728 
	C50.704399,93.265068 50.699661,91.562401 50.876160,89.091385 
	C52.805115,87.251915 54.552826,86.180809 56.995552,84.683754 
	C57.083450,84.082382 57.310555,82.528633 57.537659,80.974876 
	C58.585701,80.947487 59.633736,80.920097 60.900780,81.044174 
	C60.334335,81.775108 59.548885,82.354576 58.746376,82.946632 
	C61.327946,83.895325 63.390858,84.653412 65.649078,86.105026 
	C64.832672,91.180984 61.173176,87.902283 59.074062,89.138435 
	C55.783768,85.959557 53.714043,87.901108 52.405872,91.024033 
	C51.807873,92.451599 52.185760,94.287964 52.123650,96.406265 
	C52.126255,96.873611 52.044498,96.988647 51.776039,96.826614 
	C51.241436,96.098969 50.975288,95.533348 50.709141,94.967728 
z"/>
<path fill="#EECAB4" opacity="1.000000" stroke="none" 
	d="
M59.028511,89.336456 
	C61.173176,87.902283 64.832672,91.180984 65.891571,86.392189 
	C66.104324,88.308220 66.265816,90.630905 66.437050,92.952866 
	C66.531563,94.234558 66.642441,95.515038 66.443703,96.972931 
	C64.450180,97.537560 62.758896,97.925308 61.067612,98.313065 
	C60.617649,98.180161 60.167690,98.047256 59.231625,97.603592 
	C58.158287,96.835960 57.571056,96.379082 56.983822,95.922203 
	C56.944756,95.188210 56.905689,94.454224 56.888458,93.040787 
	C56.981003,91.922775 57.051716,91.484215 57.122433,91.045654 
	C57.554638,90.728706 57.986847,90.411751 58.802704,90.288956 
	C60.314476,91.091171 61.442604,91.699211 62.570732,92.307251 
	C62.726444,91.720589 62.882156,91.133919 63.037868,90.547256 
	C61.655193,90.341522 60.272518,90.135788 58.889843,89.930054 
	C58.889843,89.930054 58.982960,89.534477 59.028511,89.336456 
z"/>
<path fill="#3D5130" opacity="1.000000" stroke="none" 
	d="
M48.912216,56.179260 
	C49.388725,57.968224 49.388725,59.718819 49.388725,62.450211 
	C49.775974,64.121590 50.375717,66.352089 50.777100,68.617737 
	C50.938904,69.531059 50.666389,70.521324 50.316818,71.724289 
	C49.291504,71.979324 48.540916,71.986633 47.415394,71.990280 
	C46.687088,68.663307 46.469448,65.317604 45.926411,62.025574 
	C45.628906,60.222023 44.781952,58.509106 43.913696,56.466103 
	C45.241657,56.164886 46.838680,56.152893 48.912216,56.179260 
z"/>
<path fill="#F2C0B1" opacity="1.000000" stroke="none" 
	d="
M82.157684,74.955231 
	C81.629486,75.294655 81.122826,75.202789 80.384445,75.027740 
	C79.860329,74.260559 79.567932,73.576569 79.027328,72.289734 
	C78.486679,67.320625 78.194237,62.954350 77.901794,58.588074 
	C77.901787,58.588074 77.874054,58.283966 78.057083,58.042976 
	C78.240105,57.801983 78.372261,57.427837 78.372261,57.427837 
	C78.372261,57.427837 78.151253,57.292812 78.424316,57.369110 
	C78.697388,57.445412 79.044716,57.395687 79.308182,57.636787 
	C80.057175,59.681175 80.528732,61.488377 81.032036,63.286694 
	C81.570709,65.211380 82.139290,67.127701 82.825302,69.255219 
	C83.116165,69.750587 83.230064,70.055756 83.297478,70.378281 
	C82.924728,71.760170 82.551971,73.142052 82.157684,74.955231 
z"/>
<path fill="#F3C4B3" opacity="1.000000" stroke="none" 
	d="
M92.047592,48.881100 
	C92.305908,51.021435 92.153648,53.070282 91.585266,55.672600 
	C89.545723,56.917347 87.922310,57.608616 86.067993,58.192963 
	C85.541290,57.720097 85.245499,57.354153 85.311279,56.829578 
	C85.672859,54.608803 85.672859,52.546658 85.672859,50.366482 
	C86.953506,49.871593 88.456734,49.290688 89.959969,48.709782 
	C90.518990,48.736389 91.078011,48.763000 92.047592,48.881100 
z"/>
<path fill="#385231" opacity="1.000000" stroke="none" 
	d="
M89.639465,48.579357 
	C88.456734,49.290688 86.953506,49.871593 85.672859,50.366482 
	C85.672859,52.546658 85.672859,54.608803 85.340401,56.873005 
	C85.007942,57.075066 85.096184,57.018955 84.989197,56.699211 
	C84.262383,56.156052 83.642555,55.932632 83.019478,55.382805 
	C83.006668,54.407375 82.997108,53.758350 82.987549,53.109329 
	C83.243134,49.035892 85.051323,47.071762 89.639465,48.579357 
z"/>
<path fill="#475C3B" opacity="1.000000" stroke="none" 
	d="
M52.168633,96.817184 
	C54.349579,99.816719 52.016815,100.663956 49.866875,100.572197 
	C47.692459,100.479401 45.561230,99.374634 43.658924,98.385635 
	C46.619343,97.701630 49.331921,97.345139 52.044498,96.988647 
	C52.044498,96.988647 52.126255,96.873611 52.168633,96.817184 
z"/>
<path fill="#5F583A" opacity="1.000000" stroke="none" 
	d="
M75.312668,71.905815 
	C74.567162,68.274788 74.194527,64.637054 73.835037,60.549885 
	C74.560654,59.921192 75.273117,59.741936 76.165039,59.934284 
	C76.622307,64.154007 76.900116,68.002129 77.177933,71.850250 
	C76.680466,71.866539 76.183006,71.882828 75.312668,71.905815 
z"/>
<path fill="#CBC0A4" opacity="1.000000" stroke="none" 
	d="
M116.652077,61.110687 
	C115.647530,60.154408 114.642982,59.198132 113.357101,58.139385 
	C116.091850,55.347210 119.338173,55.181770 122.608376,57.681171 
	C121.750015,58.461262 121.062569,58.712017 120.208687,58.728996 
	C117.787376,57.113052 117.787376,57.113052 116.652077,61.110687 
z"/>
<path fill="#E3CBB6" opacity="1.000000" stroke="none" 
	d="
M77.468292,71.932861 
	C76.900116,68.002129 76.622307,64.154007 76.533669,59.922112 
	C76.958275,59.289944 77.193703,59.041550 77.665466,58.690613 
	C78.194237,62.954350 78.486679,67.320625 78.829514,72.075928 
	C78.506142,72.315132 78.132393,72.165306 77.468292,71.932861 
z"/>
<path fill="#CFBAA3" opacity="1.000000" stroke="none" 
	d="
M51.776039,96.826614 
	C49.331921,97.345139 46.619343,97.701630 43.472775,98.098587 
	C43.038784,98.139046 42.885269,97.967804 42.749649,97.806587 
	C42.614029,97.645370 42.425137,97.383232 42.425137,97.383232 
	C42.848289,95.697433 43.271446,94.011635 44.042580,92.225418 
	C45.531448,94.684654 46.196415,98.108337 50.485390,95.163300 
	C50.975288,95.533348 51.241436,96.098969 51.776039,96.826614 
z"/>
<path fill="#D9C4B1" opacity="1.000000" stroke="none" 
	d="
M106.397781,61.156799 
	C105.153664,60.325157 104.207008,59.564041 103.176300,58.647881 
	C104.350578,57.841743 105.595818,57.163658 106.870285,56.545879 
	C108.785400,55.617546 110.125153,55.718781 109.562035,58.919964 
	C108.785706,60.055244 108.352173,60.643284 107.918633,61.231323 
	C107.510834,61.229992 107.103035,61.228657 106.397781,61.156799 
z"/>
<path fill="#4F5734" opacity="1.000000" stroke="none" 
	d="
M116.669289,61.436192 
	C117.787376,57.113052 117.787376,57.113052 120.229958,58.964073 
	C120.417656,59.432930 120.716484,59.801338 120.673325,60.154892 
	C120.440941,61.370117 120.251709,62.231789 120.062485,63.093460 
	C119.876518,63.099346 119.690544,63.105228 118.890823,63.084534 
	C117.830139,63.048935 117.383202,63.039921 116.936279,63.030907 
	C116.853020,62.607834 116.769760,62.184765 116.669289,61.436192 
z"/>
<path fill="#3C522D" opacity="1.000000" stroke="none" 
	d="
M61.161827,98.599579 
	C62.758896,97.925308 64.450180,97.537560 66.510551,97.245926 
	C67.099091,97.580406 67.318542,97.818779 67.751289,98.186829 
	C65.836670,99.781532 63.813091,102.475395 61.161827,98.599579 
z"/>
<path fill="#C8C1A8" opacity="1.000000" stroke="none" 
	d="
M91.033951,96.269150 
	C93.466423,95.640976 95.690895,95.193207 98.145393,94.699135 
	C98.145393,94.876099 98.145393,95.636459 98.203171,96.715363 
	C98.013245,97.346794 97.765549,97.659683 97.254120,98.119453 
	C94.934158,98.186760 92.877937,98.107185 90.387482,97.936218 
	C90.244148,97.379738 90.535049,96.914650 91.033951,96.269150 
z"/>
<path fill="#CBC0A4" opacity="1.000000" stroke="none" 
	d="
M108.252991,61.399025 
	C108.352173,60.643284 108.785706,60.055244 109.432205,59.296989 
	C110.524948,58.917873 111.404732,58.708969 112.661041,58.287640 
	C112.222809,60.161221 111.408066,62.247231 110.433167,64.626587 
	C109.711128,63.802200 109.149246,62.684460 108.252991,61.399025 
z"/>
<path fill="#385231" opacity="1.000000" stroke="none" 
	d="
M99.996437,56.289017 
	C99.261185,56.245258 98.525925,56.201500 97.169930,56.100464 
	C96.370834,55.989025 96.192490,55.934872 96.014145,55.880714 
	C98.000755,51.425804 100.265251,54.400593 102.326569,55.879044 
	C101.457687,56.175438 100.727058,56.232227 99.996437,56.289017 
z"/>
<path fill="#F7BFB5" opacity="1.000000" stroke="none" 
	d="
M120.716484,59.801338 
	C120.716484,59.801338 120.417656,59.432930 120.396385,59.197853 
	C121.062569,58.712017 121.750015,58.461262 122.756477,58.030022 
	C123.358986,58.039574 123.642487,58.229607 124.213707,58.828804 
	C124.782906,59.423992 125.064377,59.610012 125.345848,59.796036 
	C125.345848,59.796036 125.248161,59.808651 125.182899,60.096748 
	C123.073761,64.541115 122.062988,60.905090 120.716484,59.801338 
z"/>
<path fill="#3D5130" opacity="1.000000" stroke="none" 
	d="
M42.631218,55.756371 
	C40.700802,56.479763 38.487713,57.033436 36.113293,57.290672 
	C37.365997,53.261471 40.013783,55.135323 42.631218,55.756371 
z"/>
<path fill="#CBC0A4" opacity="1.000000" stroke="none" 
	d="
M116.770523,63.331596 
	C117.383202,63.039921 117.830139,63.048935 118.612030,63.097527 
	C118.598923,64.645248 118.250854,66.153381 117.627930,67.864639 
	C117.103645,66.589264 116.854210,65.110779 116.770523,63.331596 
z"/>
<path fill="#E8CEBA" opacity="1.000000" stroke="none" 
	d="
M120.673325,60.154892 
	C122.062988,60.905090 123.073761,64.541115 125.217590,60.061790 
	C125.597298,60.960354 125.877052,62.181976 126.299576,64.027016 
	C124.009148,63.920361 122.245743,63.838242 120.272408,63.424789 
	C120.251709,62.231789 120.440941,61.370117 120.673325,60.154892 
z"/>
<path fill="#485F3D" opacity="1.000000" stroke="none" 
	d="
M82.733856,53.062130 
	C82.997108,53.758350 83.006668,54.407375 82.671692,55.488400 
	C81.233002,56.412163 80.138863,56.903927 79.044716,57.395687 
	C79.044716,57.395687 78.697388,57.445412 78.522537,57.453522 
	C79.725174,55.979397 81.102661,54.497162 82.733856,53.062130 
z"/>
<path fill="#CFBAA3" opacity="1.000000" stroke="none" 
	d="
M44.295204,86.245346 
	C44.509682,87.102989 44.610138,88.287285 44.542686,89.668045 
	C44.310249,88.767014 44.245716,87.669502 44.295204,86.245346 
z"/>
<path fill="#365C39" opacity="1.000000" stroke="none" 
	d="
M40.699409,89.282333 
	C39.919094,88.880806 39.047390,88.115135 38.396503,87.108734 
	C39.280884,87.551407 39.944454,88.234795 40.699409,89.282333 
z"/>
<path fill="#CBC0A4" opacity="1.000000" stroke="none" 
	d="
M110.917534,68.400185 
	C111.509903,68.926071 112.119576,69.777985 112.769882,70.949043 
	C112.185287,70.420860 111.560066,69.573540 110.917534,68.400185 
z"/>
<path fill="#3C522D" opacity="1.000000" stroke="none" 
	d="
M57.008495,96.199127 
	C57.571056,96.379082 58.158287,96.835960 58.886902,97.532829 
	C58.363247,97.340561 57.698208,96.908310 57.008495,96.199127 
z"/>
<path fill="#D6C1AA" opacity="1.000000" stroke="none" 
	d="
M95.717125,56.008957 
	C96.192490,55.934872 96.370834,55.989025 96.804832,56.157753 
	C97.022079,56.746120 96.983681,57.219913 96.892776,58.047058 
	C96.058601,57.829288 95.276932,57.258171 94.313492,56.460327 
	C94.561188,56.201466 94.990646,56.169331 95.717125,56.008957 
z"/>
<path fill="#D6C1AA" opacity="1.000000" stroke="none" 
	d="
M100.215607,56.435688 
	C100.727058,56.232227 101.457687,56.175438 102.556747,56.113731 
	C102.925186,56.108818 102.970078,56.559135 102.693695,56.800842 
	C102.417313,57.042553 101.926826,57.084625 101.926826,57.084625 
	C101.429474,56.917202 100.932121,56.749783 100.215607,56.435688 
z"/>
<path fill="#3C522D" opacity="1.000000" stroke="none" 
	d="
M56.972046,91.203140 
	C57.051716,91.484215 56.981003,91.922775 56.813660,92.680862 
	C56.751900,92.453804 56.786777,91.907219 56.972046,91.203140 
z"/>
<path fill="#D9C4B1" opacity="1.000000" stroke="none" 
	d="
M102.101852,57.228333 
	C101.926826,57.084625 102.417313,57.042553 102.662842,57.025009 
	C102.908379,57.007462 103.109604,57.436268 103.060318,57.666859 
	C102.752525,57.741596 102.507805,57.566460 102.101852,57.228333 
z"/>
<path fill="#475C3B" opacity="1.000000" stroke="none" 
	d="
M42.412312,97.456902 
	C42.425137,97.383232 42.614029,97.645370 42.634689,97.803711 
	C42.508629,97.854706 42.423340,97.710884 42.412312,97.456902 
z"/>
<path fill="#485F3D" opacity="1.000000" stroke="none" 
	d="
M78.256256,57.426331 
	C78.372261,57.427837 78.240105,57.801983 78.062775,57.890396 
	C77.813713,57.722889 77.898651,57.538227 78.256256,57.426331 
z"/>
<path fill="#485F3D" opacity="1.000000" stroke="none" 
	d="
M56.498940,58.169395 
	C56.254513,58.286507 56.011772,58.073017 55.804325,57.511784 
	C56.021080,57.442169 56.241417,57.667084 56.498940,58.169395 
z"/>
<path fill="#E8CEBA" opacity="1.000000" stroke="none" 
	d="
M125.235977,59.546959 
	C125.064377,59.610012 124.782906,59.423992 124.319138,59.065742 
	C124.466606,59.028305 124.796356,59.163094 125.235977,59.546959 
z"/>
<path fill="#E3BDAA" opacity="1.000000" stroke="none" 
	d="
M76.529808,80.762527 
	C79.133026,81.014435 81.994797,80.390724 81.644745,84.988838 
	C81.798973,89.196922 81.910851,92.580193 81.651535,96.125481 
	C79.095963,96.478920 76.911583,96.670341 74.727203,96.861763 
	C74.456253,91.866791 74.185310,86.871811 73.751411,81.483688 
	C74.428818,80.995071 75.269173,80.899605 76.529808,80.762527 
z"/>
<path fill="#DBBCA9" opacity="1.000000" stroke="none" 
	d="
M67.387489,63.637970 
	C68.131866,66.281647 68.472710,68.996033 68.782806,72.099213 
	C65.569305,72.324203 62.386555,72.160393 58.818481,72.032806 
	C59.608223,64.435608 59.796394,64.251625 67.387489,63.637970 
z"/>
<path fill="#3E5336" opacity="1.000000" stroke="none" 
	d="
M37.320267,73.926514 
	C36.487709,70.289574 35.907608,66.674835 35.709709,63.039307 
	C35.659130,62.110229 36.818268,61.115303 37.421619,60.150631 
	C38.268501,60.959675 39.771400,61.712337 39.846638,62.587696 
	C40.143433,66.040985 39.992012,69.532784 40.045074,73.464325 
	C39.293766,73.925903 38.504257,73.933449 37.320267,73.926514 
z"/>
<path fill="#CFBAA3" opacity="1.000000" stroke="none" 
	d="
M57.126381,80.878479 
	C57.310555,82.528633 57.083450,84.082382 56.995552,84.683754 
	C54.552826,86.180809 52.805115,87.251915 50.877869,88.665733 
	C49.785206,85.718483 50.327805,81.162415 44.218277,82.077972 
	C45.301174,81.680168 47.361172,80.391167 48.192181,80.945282 
	C51.256783,82.988754 53.908581,81.376198 57.126381,80.878479 
z"/>
<path fill="#475C3B" opacity="1.000000" stroke="none" 
	d="
M70.737320,79.800270 
	C70.460388,79.755058 69.968193,79.552101 69.264908,79.185349 
	C69.543228,79.228554 70.032639,79.435532 70.737320,79.800270 
z"/>
<path fill="#475C3B" opacity="1.000000" stroke="none" 
	d="
M67.898399,79.190063 
	C67.942566,79.079338 67.948097,79.538094 67.952927,79.767136 
	C67.835548,79.775848 67.801041,79.544044 67.898399,79.190063 
z"/>
<path fill="#526341" opacity="1.000000" stroke="none" 
	d="
M84.978821,57.031639 
	C85.245499,57.354153 85.541290,57.720097 86.081207,58.627571 
	C86.528099,62.105190 86.730873,65.041283 86.852051,68.292389 
	C86.763367,69.040894 86.756271,69.474403 86.749184,69.907906 
	C85.800308,70.136337 84.851425,70.364769 83.600014,70.485741 
	C83.230064,70.055756 83.116165,69.750587 82.846069,68.849396 
	C82.655937,64.314598 79.985245,59.848232 85.096184,57.018955 
	C85.096184,57.018955 85.007942,57.075066 84.978821,57.031639 
z"/>
<path fill="#F2C0B1" opacity="1.000000" stroke="none" 
	d="
M86.933640,67.977379 
	C86.730873,65.041283 86.528099,62.105190 86.312111,58.734493 
	C87.922310,57.608616 89.545723,56.917347 91.521576,56.107857 
	C91.938553,56.724743 92.003082,57.459846 91.926544,58.832561 
	C91.914703,60.670528 92.043938,61.870888 92.173157,63.071251 
	C92.129219,65.406967 92.085289,67.742691 92.098328,70.513176 
	C91.000366,70.686020 89.845421,70.424095 88.255798,69.805893 
	C87.525284,68.958885 87.229462,68.468132 86.933640,67.977379 
z"/>
<path fill="#F3C4B3" opacity="1.000000" stroke="none" 
	d="
M86.852051,68.292389 
	C87.229462,68.468132 87.525284,68.958885 87.910065,69.723495 
	C87.790726,69.982338 87.582413,69.967308 87.061646,69.930099 
	C86.756271,69.474403 86.763367,69.040894 86.852051,68.292389 
z"/>
<path fill="#32552F" opacity="1.000000" stroke="none" 
	d="
M82.022736,95.963463 
	C81.910851,92.580193 81.798973,89.196922 81.761032,85.352173 
	C83.058594,84.859138 84.343361,85.051285 85.489937,84.737900 
	C86.844208,84.367752 88.079048,83.560661 89.674194,82.973129 
	C89.337570,84.973961 88.692421,86.944649 87.732544,89.456703 
	C86.955772,90.675652 86.493729,91.353233 86.031685,92.030815 
	C85.372528,93.114815 84.713379,94.198814 83.683823,95.642181 
	C82.883186,95.988853 82.452965,95.976158 82.022736,95.963463 
z"/>
<path fill="#C8C1A8" opacity="1.000000" stroke="none" 
	d="
M81.651535,96.125481 
	C82.452965,95.976158 82.883186,95.988853 83.635490,95.972816 
	C84.559845,96.418015 85.162132,96.891953 85.903030,97.626480 
	C82.138245,97.876137 78.234810,97.867386 74.331490,97.842300 
	C74.228035,97.841637 74.049911,97.669998 74.041069,97.566605 
	C74.028587,97.420586 74.141670,97.263824 74.464142,96.986710 
	C76.911583,96.670341 79.095963,96.478920 81.651535,96.125481 
z"/>
<path fill="#C8C1A8" opacity="1.000000" stroke="none" 
	d="
M86.319740,91.885117 
	C86.493729,91.353233 86.955772,90.675652 87.663048,89.794220 
	C87.474792,90.306732 87.041298,91.023071 86.319740,91.885117 
z"/>
<path fill="#2A5B36" opacity="1.000000" stroke="none" 
	d="
M96.493431,90.502853 
	C96.483055,90.477592 96.503807,90.528122 96.493431,90.502853 
z"/>
<path fill="#F3C4B3" opacity="1.000000" stroke="none" 
	d="
M92.470901,62.891533 
	C92.043938,61.870888 91.914703,60.670528 91.970230,59.200111 
	C92.359535,60.190643 92.564087,61.451229 92.470901,62.891533 
z"/>
<path fill="#ECC3B1" opacity="1.000000" stroke="none" 
	d="
M58.924416,89.946182 
	C60.272518,90.135788 61.655193,90.341522 63.037868,90.547256 
	C62.882156,91.133919 62.726444,91.720589 62.570732,92.307251 
	C61.442604,91.699211 60.314476,91.091171 59.056530,90.188194 
	C58.926708,89.893265 58.958988,89.962318 58.924416,89.946182 
z"/>
<path fill="#E3CBB6" opacity="1.000000" stroke="none" 
	d="
M84.989197,56.699211 
	C79.985245,59.848232 82.655937,64.314598 82.715584,68.641846 
	C82.139290,67.127701 81.570709,65.211380 81.032036,63.286694 
	C80.528732,61.488377 80.057175,59.681175 79.308182,57.636787 
	C80.138863,56.903927 81.233002,56.412163 82.674942,55.814808 
	C83.642555,55.932632 84.262383,56.156052 84.989197,56.699211 
z"/>
</svg>